HIERARCHY
ROOT Hips
{
	OFFSET 0.000000 100.481300 0.000000
	CHANNELS 6 Xposition Yposition Zposition Xrotation Yrotation Zrotation
	JOINT Spine
	{
		OFFSET -0.279200 12.230698 -2.892100
		CHANNELS 3 Xrotation Yrotation Zrotation
		JOINT Spine1
		{
			OFFSET -0.325700 14.269203 -3.374200
			CHANNELS 3 Xrotation Yrotation Zrotation
			JOINT Spine2
			{
				OFFSET -0.372300 16.307602 -0.352600
				CHANNELS 3 Xrotation Yrotation Zrotation
				JOINT Neck
				{
					OFFSET -0.418800 17.814194 8.416900
					CHANNELS 3 Xrotation Yrotation Zrotation
					JOINT Head
					{
						OFFSET 0.000000 7.031097 3.806800
						CHANNELS 3 Xrotation Yrotation Zrotation
						JOINT HeadTop_End
						{
							OFFSET 0.000000 24.646606 12.978600
							CHANNELS 3 Xrotation Yrotation Zrotation
							End Site
							{
								OFFSET 0.000000 27.854965 0.000000
							}
						}
					}
				}
				JOINT LeftShoulder
				{
					OFFSET 16.952999 14.495407 -7.737500
					CHANNELS 3 Xrotation Yrotation Zrotation
					JOINT LeftArm
					{
						OFFSET 9.308998 -2.777710 0.208600
						CHANNELS 3 Xrotation Yrotation Zrotation
						JOINT LeftForeArm
						{
							OFFSET 29.972298 0.000000 0.000000
							CHANNELS 3 Xrotation Yrotation Zrotation
							JOINT LeftHand
							{
								OFFSET 26.026505 0.000000 0.000000
								CHANNELS 3 Xrotation Yrotation Zrotation
								JOINT LeftHandThumb1
								{
									OFFSET 12.240501 -7.147949 9.207150
									CHANNELS 3 Xrotation Yrotation Zrotation
									JOINT LeftHandThumb2
									{
										OFFSET 4.138618 -2.389435 2.389433
										CHANNELS 3 Xrotation Yrotation Zrotation
										JOINT LeftHandThumb3
										{
											OFFSET 2.726913 -1.574387 1.574386
											CHANNELS 3 Xrotation Yrotation Zrotation
											JOINT LeftHandThumb4
											{
												OFFSET 3.941010 -2.275345 2.275342
												CHANNELS 3 Xrotation Yrotation Zrotation
												End Site
												{
													OFFSET -0.005798 5.087799 0.009903
												}
											}
										}
									}
								}
								JOINT LeftHandIndex1
								{
									OFFSET 24.424698 -1.985611 5.953459
									CHANNELS 3 Xrotation Yrotation Zrotation
									JOINT LeftHandIndex2
									{
										OFFSET 6.426697 0.000000 0.000000
										CHANNELS 3 Xrotation Yrotation Zrotation
										JOINT LeftHandIndex3
										{
											OFFSET 5.337898 0.000000 0.000000
											CHANNELS 3 Xrotation Yrotation Zrotation
											JOINT LeftHandIndex4
											{
												OFFSET 4.409401 0.000000 0.000000
												CHANNELS 3 Xrotation Yrotation Zrotation
												End Site
												{
													OFFSET 0.000000 4.409363 0.014373
												}
											}
										}
									}
								}
								JOINT LeftHandMiddle1
								{
									OFFSET 23.810104 0.000000 0.000000
									CHANNELS 3 Xrotation Yrotation Zrotation
									JOINT LeftHandMiddle2
									{
										OFFSET 7.176498 0.000000 0.000000
										CHANNELS 3 Xrotation Yrotation Zrotation
										JOINT LeftHandMiddle3
										{
											OFFSET 6.774902 0.000000 0.000000
											CHANNELS 3 Xrotation Yrotation Zrotation
											JOINT LeftHandMiddle4
											{
												OFFSET 5.403328 0.000000 0.000000
												CHANNELS 3 Xrotation Yrotation Zrotation
												End Site
												{
													OFFSET -0.027702 5.403244 0.017414
												}
											}
										}
									}
								}
								JOINT LeftHandRing1
								{
									OFFSET 22.908401 -0.839279 -6.020567
									CHANNELS 3 Xrotation Yrotation Zrotation
									JOINT LeftHandRing2
									{
										OFFSET 6.337502 0.000000 0.000000
										CHANNELS 3 Xrotation Yrotation Zrotation
										JOINT LeftHandRing3
										{
											OFFSET 5.779297 0.000000 0.000000
											CHANNELS 3 Xrotation Yrotation Zrotation
											JOINT LeftHandRing4
											{
												OFFSET 4.965698 0.000000 0.000000
												CHANNELS 3 Xrotation Yrotation Zrotation
												End Site
												{
													OFFSET 0.000000 4.965668 0.016186
												}
											}
										}
									}
								}
								JOINT LeftHandPinky1
								{
									OFFSET 20.037003 -1.530319 -10.950146
									CHANNELS 3 Xrotation Yrotation Zrotation
									JOINT LeftHandPinky2
									{
										OFFSET 5.254700 0.000000 0.000000
										CHANNELS 3 Xrotation Yrotation Zrotation
										JOINT LeftHandPinky3
										{
											OFFSET 4.810204 0.000000 0.000000
											CHANNELS 3 Xrotation Yrotation Zrotation
											JOINT LeftHandPinky4
											{
												OFFSET 3.647202 0.000000 0.000000
												CHANNELS 3 Xrotation Yrotation Zrotation
												End Site
												{
													OFFSET 0.000000 3.647186 0.011889
												}
											}
										}
									}
								}
							}
						}
					}
				}
				JOINT RightShoulder
				{
					OFFSET -15.141001 14.495407 -7.737500
					CHANNELS 3 Xrotation Yrotation Zrotation
					JOINT RightArm
					{
						OFFSET -9.308998 -2.777710 0.208500
						CHANNELS 3 Xrotation Yrotation Zrotation
						JOINT RightForeArm
						{
							OFFSET -29.972300 0.000000 0.000000
							CHANNELS 3 Xrotation Yrotation Zrotation
							JOINT RightHand
							{
								OFFSET -26.026505 0.000000 0.000000
								CHANNELS 3 Xrotation Yrotation Zrotation
								JOINT RightHandThumb1
								{
									OFFSET -12.240601 -7.148026 9.207092
									CHANNELS 3 Xrotation Yrotation Zrotation
									JOINT RightHandThumb2
									{
										OFFSET -4.138618 -2.389435 2.389433
										CHANNELS 3 Xrotation Yrotation Zrotation
										JOINT RightHandThumb3
										{
											OFFSET -2.726974 -1.574417 1.574421
											CHANNELS 3 Xrotation Yrotation Zrotation
											JOINT RightHandThumb4
											{
												OFFSET -3.941010 -2.275345 2.275343
												CHANNELS 3 Xrotation Yrotation Zrotation
												End Site
												{
													OFFSET 0.005814 5.087799 0.009927
												}
											}
										}
									}
								}
								JOINT RightHandIndex1
								{
									OFFSET -24.424698 -1.985657 5.953444
									CHANNELS 3 Xrotation Yrotation Zrotation
									JOINT RightHandIndex2
									{
										OFFSET -6.426697 0.000000 0.000000
										CHANNELS 3 Xrotation Yrotation Zrotation
										JOINT RightHandIndex3
										{
											OFFSET -5.337898 0.000000 0.000000
											CHANNELS 3 Xrotation Yrotation Zrotation
											JOINT RightHandIndex4
											{
												OFFSET -4.409401 0.000000 0.000000
												CHANNELS 3 Xrotation Yrotation Zrotation
												End Site
												{
													OFFSET 0.000000 4.409363 0.014408
												}
											}
										}
									}
								}
								JOINT RightHandMiddle1
								{
									OFFSET -23.810097 0.000000 0.000000
									CHANNELS 3 Xrotation Yrotation Zrotation
									JOINT RightHandMiddle2
									{
										OFFSET -7.176498 0.000000 0.000000
										CHANNELS 3 Xrotation Yrotation Zrotation
										JOINT RightHandMiddle3
										{
											OFFSET -6.774902 0.000000 0.000000
											CHANNELS 3 Xrotation Yrotation Zrotation
											JOINT RightHandMiddle4
											{
												OFFSET -5.403328 0.000000 0.000000
												CHANNELS 3 Xrotation Yrotation Zrotation
												End Site
												{
													OFFSET 0.027702 5.403244 0.017457
												}
											}
										}
									}
								}
								JOINT RightHandRing1
								{
									OFFSET -22.908302 -0.839325 -6.020576
									CHANNELS 3 Xrotation Yrotation Zrotation
									JOINT RightHandRing2
									{
										OFFSET -6.337502 0.000000 0.000000
										CHANNELS 3 Xrotation Yrotation Zrotation
										JOINT RightHandRing3
										{
											OFFSET -5.779297 0.000000 0.000000
											CHANNELS 3 Xrotation Yrotation Zrotation
											JOINT RightHandRing4
											{
												OFFSET -4.965698 0.000000 0.000000
												CHANNELS 3 Xrotation Yrotation Zrotation
												End Site
												{
													OFFSET 0.000000 4.965668 0.016226
												}
											}
										}
									}
								}
								JOINT RightHandPinky1
								{
									OFFSET -20.037003 -1.530334 -10.950259
									CHANNELS 3 Xrotation Yrotation Zrotation
									JOINT RightHandPinky2
									{
										OFFSET -5.254700 0.000000 0.000000
										CHANNELS 3 Xrotation Yrotation Zrotation
										JOINT RightHandPinky3
										{
											OFFSET -4.810204 0.000000 0.000000
											CHANNELS 3 Xrotation Yrotation Zrotation
											JOINT RightHandPinky4
											{
												OFFSET -3.647202 0.000000 0.000000
												CHANNELS 3 Xrotation Yrotation Zrotation
												End Site
												{
													OFFSET 0.000000 3.647186 0.011917
												}
											}
										}
									}
								}
							}
						}
					}
				}
			}
		}
	}
	JOINT LeftUpLeg
	{
		OFFSET 15.427100 -6.655098 0.678600
		CHANNELS 3 Xrotation Yrotation Zrotation
		JOINT LeftLeg
		{
			OFFSET 4.081073 -39.591068 13.024000
			CHANNELS 3 Xrotation Yrotation Zrotation
			JOINT LeftFoot
			{
				OFFSET -4.081074 -37.707932 -15.979700
				CHANNELS 3 Xrotation Yrotation Zrotation
				JOINT LeftToeBase
				{
					OFFSET 5.346399 -15.068900 20.645000
					CHANNELS 3 Xrotation Yrotation Zrotation
					JOINT LeftToe_End
					{
						OFFSET 2.754700 0.931300 11.300900
						CHANNELS 3 Xrotation Yrotation Zrotation
						End Site
						{
							OFFSET 0.000000 11.669021 0.000000
						}
					}
				}
			}
		}
	}
	JOINT RightUpLeg
	{
		OFFSET -15.569500 -6.655098 0.678600
		CHANNELS 3 Xrotation Yrotation Zrotation
		JOINT RightLeg
		{
			OFFSET -4.081825 -39.591045 13.023800
			CHANNELS 3 Xrotation Yrotation Zrotation
			JOINT RightFoot
			{
				OFFSET 4.081824 -37.707954 -15.979600
				CHANNELS 3 Xrotation Yrotation Zrotation
				JOINT RightToeBase
				{
					OFFSET -5.346400 -15.068900 20.645000
					CHANNELS 3 Xrotation Yrotation Zrotation
					JOINT RightToe_End
					{
						OFFSET -2.754700 0.931300 11.300900
						CHANNELS 3 Xrotation Yrotation Zrotation
						End Site
						{
							OFFSET 0.000000 11.669021 0.000000
						}
					}
				}
			}
		}
	}
}
MOTION
Frames: 5
Frame Time: 0.033333
-2.242905 95.516739 44.865234 11.949621 -3.862654 -1.052765 6.233216 1.472831 0.761195 -8.033194 0.021547 -0.008204 -8.034215 0.132444 0.038582 2.023366 -0.779370 -0.161656 -13.638624 -2.129557 -6.064508 0.000000 -0.000000 0.000000 0.694704 -11.320537 -9.112787 15.163367 -17.947352 -75.372551 -0.000001 -39.453638 -0.000014 6.653200 5.403182 10.063711 19.623953 -7.259174 0.550500 6.639696 27.824179 -11.966743 74.472585 59.761164 -37.966843 -0.000002 -0.000001 -0.000001 5.450454 3.207551 -89.763323 4.588849 5.713758 -77.520953 3.905987 5.519345 -70.552261 -0.000003 -0.000002 0.000002 2.093435 8.093582 -88.295898 4.581967 5.712227 -77.451859 1.771904 4.198254 -45.750339 -0.000001 -0.000002 0.000003 -0.449224 8.494571 -92.481267 4.514998 5.696995 -76.778238 2.136036 4.523508 -50.536136 -0.000000 0.000000 0.000002 -4.153753 10.147369 -100.189654 5.263175 5.821575 -84.223295 3.785782 5.475619 -69.297549 0.000001 -0.000001 0.000001 4.062897 -18.648988 5.419435 5.253106 36.011851 74.739475 0.000006 44.553174 -0.000014 6.426184 13.404479 8.174740 -2.010820 -3.008166 -16.697449 9.603264 -20.620529 31.317199 1.374947 -44.032174 -9.346399 0.000003 -0.000001 0.000000 2.721774 -0.709226 52.599454 1.315185 -3.245360 44.111899 1.564245 -3.483503 48.353672 -0.000001 0.000002 0.000000 2.323660 -6.454202 45.806664 1.904550 -3.758082 53.738395 0.664446 -2.399314 30.954397 -0.000001 0.000001 -0.000000 4.607990 -8.711018 45.337768 1.903797 -3.757522 53.726719 0.978457 -2.857875 37.792892 0.000001 -0.000002 0.000000 -3.161569 -17.382186 51.941591 2.612999 -4.185454 63.939429 1.794280 -3.674822 52.037333 -0.000000 -0.000001 -0.000000 -22.162794 10.662335 18.362783 12.632519 5.651845 -0.681432 -2.415023 -5.129887 -13.781572 -0.107680 0.000008 -0.000002 0.000000 0.000001 -0.000000 -23.190818 -1.987571 -5.776642 13.867038 -4.971537 -1.536380 -1.547617 -1.901689 8.686623 -0.232332 -0.000008 0.000001 0.000000 0.000000 0.000000 
-2.008840 95.507828 44.312458 11.937093 -3.276734 -1.307044 6.293954 1.479511 0.771385 -7.902409 0.016454 0.035686 -7.903036 0.125121 0.079576 1.816030 -0.906349 -0.156003 -13.645240 -2.762002 -6.140556 0.000000 0.000000 0.000001 0.700917 -11.725781 -8.986875 14.571418 -19.866292 -74.835917 0.000023 -39.673451 0.000019 6.348553 5.457558 9.543509 19.614596 -7.245939 0.565844 6.647043 27.820054 -11.983301 74.299597 59.763213 -37.829139 0.000002 0.000001 -0.000001 5.447259 3.211061 -89.737785 4.585730 5.713040 -77.489760 3.904327 5.518786 -70.535200 0.000000 0.000001 -0.000002 2.096716 8.091842 -88.267143 4.579464 5.711686 -77.426744 1.771424 4.197786 -45.743590 -0.000004 -0.000001 0.000001 -0.441162 8.490169 -92.446515 4.513037 5.696550 -76.758342 2.135500 4.523065 -50.529292 0.000001 -0.000001 0.000001 -4.141635 10.141111 -100.164560 5.262598 5.821495 -84.217728 3.785120 5.475384 -69.290842 -0.000001 -0.000001 -0.000000 4.199697 -18.201363 6.023151 2.797089 35.755354 76.106933 0.000005 36.493721 -0.000005 9.076552 11.349503 6.992362 -5.975458 -3.074381 -17.399936 9.789416 -20.806404 32.649233 -1.069551 -45.156758 -11.620206 0.000001 0.000000 -0.000000 2.613878 -0.344333 45.523494 1.067444 -2.968933 39.543472 1.140827 -3.055514 40.939765 0.000004 -0.000001 0.000001 1.813273 -6.127595 38.301700 1.571709 -3.490116 48.476356 0.513486 -2.127692 27.133562 0.000002 0.000001 -0.000001 3.950784 -8.862941 37.918687 1.418755 -3.348702 45.912296 0.784909 -2.589401 33.721645 0.000002 0.000003 -0.000002 -5.681984 -16.371728 41.533793 1.974170 -3.808072 54.793424 1.267748 -3.195761 43.267459 0.000001 -0.000003 -0.000002 -22.982227 10.363770 18.220720 12.893026 5.242275 -0.574635 -2.016411 -5.276773 -13.447128 -0.103479 0.000004 0.000003 0.000000 -0.000000 0.000000 -23.303818 -1.981646 -5.898078 13.687510 -5.335343 -1.501681 -1.131256 -2.112436 8.860991 -0.226840 -0.000003 0.000001 -0.000000 0.000000 0.000000 
-1.782946 95.430603 43.699825 11.922350 -2.691307 -1.558236 6.373577 1.462353 0.777107 -7.738823 -0.031442 0.066604 -7.740645 0.074771 0.108876 1.579785 -1.008934 -0.143552 -13.622192 -3.267624 -6.199545 0.000001 0.000000 -0.000000 0.710852 -12.352675 -8.880278 14.177425 -21.409508 -74.136963 0.000001 -40.101591 -0.000007 5.834193 5.583977 9.457988 19.583981 -7.203579 0.614710 6.669658 27.806299 -12.035557 73.767675 59.751205 -37.355602 -0.000001 0.000002 -0.000000 5.439712 3.218685 -89.654060 4.575678 5.710838 -77.388741 3.898865 5.516850 -70.478236 -0.000002 -0.000003 -0.000001 2.106831 8.086221 -88.173542 4.571280 5.709858 -77.344400 1.769759 4.196132 -45.720784 -0.000003 0.000001 -0.000000 -0.416153 8.475898 -92.332451 4.506804 5.695056 -76.695586 2.133672 4.521564 -50.506131 0.000004 -0.000001 0.000000 -4.102492 10.127383 -100.080146 5.260635 5.821304 -84.198317 3.782743 5.474482 -69.265864 -0.000001 0.000001 0.000000 4.326302 -17.594619 6.677824 0.239486 35.254042 77.187107 0.000000 28.829416 0.000013 11.916829 9.422687 6.132316 -8.031822 -2.704841 -17.648717 8.590928 -21.485685 33.571124 -3.158286 -43.150922 -12.301121 -0.000005 0.000002 -0.000003 2.622292 0.012716 36.744075 0.853658 -2.689450 35.214461 0.706481 -2.467963 31.943794 -0.000003 0.000001 -0.000001 1.228627 -5.619367 28.801368 1.238819 -3.164811 42.746029 0.327005 -1.715957 21.577015 0.000000 0.000003 -0.000001 2.933298 -8.707298 28.686026 0.910874 -2.768648 36.416164 0.533839 -2.166898 27.676425 -0.000002 0.000002 -0.000001 -7.873664 -14.852347 31.014660 1.188440 -3.109494 41.825384 0.747742 -2.532895 32.889922 -0.000001 -0.000001 -0.000000 -23.917588 10.025682 18.097700 13.325372 4.850011 -0.479481 -1.652393 -5.428415 -13.114980 -0.106024 0.000001 -0.000003 -0.000000 -0.000000 0.000000 -23.552295 -1.961670 -6.031599 13.699725 -5.685957 -1.462990 -0.762066 -2.333544 9.040780 -0.220862 0.000002 0.000001 -0.000000 -0.000001 -0.000000 
-1.557821 95.303459 43.042866 11.933463 -2.059038 -1.823594 6.457805 1.422426 0.789160 -7.567508 -0.122219 0.087186 -7.570963 -0.015223 0.128871 1.352991 -1.096319 -0.136377 -13.552004 -3.708064 -6.234500 0.000001 -0.000000 0.000000 0.723426 -13.168593 -8.828303 14.085556 -22.745744 -73.099512 -0.000007 -40.679049 -0.000002 5.113521 5.699372 9.487410 19.590690 -7.213604 0.602909 6.663529 27.809096 -12.022619 73.913070 59.738153 -37.435335 0.000001 0.000003 0.000000 5.440515 3.218551 -89.672413 4.577961 5.711354 -77.411677 3.899956 5.517220 -70.489608 0.000000 0.000003 0.000001 2.104187 8.087399 -88.193499 4.573115 5.710275 -77.362841 1.770092 4.196456 -45.725190 0.000002 0.000001 0.000000 -0.422249 8.479128 -92.358139 4.507954 5.695340 -76.707163 2.134021 4.521848 -50.510605 0.000006 0.000001 -0.000000 -4.112388 10.129609 -100.097836 5.260826 5.821322 -84.200236 3.783023 5.474587 -69.268787 -0.000001 -0.000002 -0.000000 4.472328 -16.872259 7.477165 -2.300621 34.430652 77.965318 -0.000003 21.880041 0.000006 15.083943 7.759746 5.054780 -8.811544 -2.152839 -17.555521 6.647198 -22.498233 34.104620 -4.727109 -40.629817 -12.024898 0.000001 -0.000003 0.000002 2.722993 0.327249 27.617708 0.682393 -2.428957 31.380136 0.362156 -1.802256 22.722122 -0.000001 0.000003 -0.000003 0.703083 -4.976387 18.731562 0.953106 -2.824948 37.281655 0.166264 -1.234569 15.339903 -0.000002 -0.000004 0.000003 1.839202 -8.202767 19.031246 0.500297 -2.101748 26.775725 0.306549 -1.663322 20.883370 -0.000000 0.000000 0.000001 -9.454157 -13.180742 21.722799 0.532815 -2.164958 27.649442 0.346040 -1.763297 22.203996 -0.000001 -0.000001 0.000000 -24.986960 9.649879 17.969319 13.868433 4.408159 -0.391867 -1.287534 -5.568222 -12.760577 -0.108567 0.000009 -0.000002 -0.000000 0.000000 0.000000 -23.908148 -1.930805 -6.183474 13.848917 -6.078255 -1.421614 -0.431809 -2.559477 9.232963 -0.220957 -0.000003 -0.000000 -0.000000 0.000000 -0.000000 
-1.326145 95.130524 42.346199 12.007414 -1.389480 -2.102908 6.538301 1.377322 0.812391 -7.404090 -0.223176 0.113922 -7.407218 -0.114700 0.155935 1.145964 -1.182345 -0.140777 -13.472721 -4.141424 -6.296713 0.000001 -0.000000 -0.000000 0.735997 -14.072064 -8.824934 14.250228 -23.995609 -71.693648 0.000016 -41.307143 -0.000004 4.424296 5.746215 9.277704 19.681615 -7.340094 0.457163 6.595556 27.849758 -11.866312 75.514524 59.752817 -38.828085 -0.000000 0.000001 0.000000 5.459612 3.201047 -89.921339 4.607907 5.717909 -77.712438 3.916200 5.522925 -70.658341 0.000001 0.000002 -0.000002 2.073918 8.104224 -88.470136 4.597593 5.715673 -77.608776 1.775005 4.201243 -45.792549 0.000003 -0.000001 -0.000000 -0.496487 8.522183 -92.698289 4.525969 5.699554 -76.888662 2.139432 4.526296 -50.579159 -0.000001 -0.000003 0.000002 -4.225929 10.192508 -100.344215 5.266994 5.821940 -84.261100 3.789987 5.477207 -69.341638 0.000001 -0.000001 0.000001 4.618908 -16.101797 8.343065 -4.603986 33.414873 78.476189 -0.000006 16.618600 0.000001 18.497404 5.936176 3.141474 -9.151648 -1.689382 -17.402591 5.022644 -23.416624 34.425697 -5.779427 -38.950428 -11.626485 -0.000001 -0.000001 0.000002 2.844384 0.559505 20.475449 0.566058 -2.227220 28.516894 0.170777 -1.250872 15.547889 -0.000000 -0.000003 -0.000001 0.373103 -4.419939 10.792031 0.758534 -2.549491 33.133237 0.075965 -0.838644 10.351784 -0.000001 -0.000001 -0.000001 1.053870 -7.633191 11.464384 0.262774 -1.543757 19.318985 0.168879 -1.244049 15.460845 -0.000001 -0.000001 -0.000000 -10.423435 -11.825479 14.927085 0.191017 -1.321448 16.449519 0.135568 -1.116693 13.844163 0.000001 -0.000001 -0.000001 -26.210952 9.229031 17.826867 14.506944 3.940897 -0.312815 -0.915878 -5.698722 -12.379902 -0.113449 -0.000004 0.000000 -0.000000 -0.000001 -0.000000 -24.398769 -1.882474 -6.362791 14.114986 -6.533588 -1.376447 -0.127371 -2.764300 9.448510 -0.226827 -0.000004 -0.000002 -0.000000 -0.000001 -0.000000 
